<svg width="72" height="72" viewBox="0 0 72 72" fill="none" xmlns="http://www.w3.org/2000/svg">
<path fill-rule="evenodd" clip-rule="evenodd" d="M5.70711 2.29289C6.09763 2.68342 6.09763 3.31658 5.70711 3.70711L3.70711 5.70711C3.31658 6.09763 2.68342 6.09763 2.29289 5.70711C1.90237 5.31658 1.90237 4.68342 2.29289 4.29289L4.29289 2.29289C4.68342 1.90237 5.31658 1.90237 5.70711 2.29289ZM10.2071 2.79289C10.5976 3.18342 10.5976 3.81658 10.2071 4.20711L4.20711 10.2071C3.81658 10.5976 3.18342 10.5976 2.79289 10.2071C2.40237 9.81658 2.40237 9.18342 2.79289 8.79289L8.79289 2.79289C9.18342 2.40237 9.81658 2.40237 10.2071 2.79289Z" fill="black"/>
<path fill-rule="evenodd" clip-rule="evenodd" d="M66.2929 2.29289C66.6834 1.90237 67.3166 1.90237 67.7071 2.29289L69.7071 4.29289C70.0976 4.68342 70.0976 5.31658 69.7071 5.70711C69.3166 6.09763 68.6834 6.09763 68.2929 5.70711L66.2929 3.70711C65.9024 3.31658 65.9024 2.68342 66.2929 2.29289ZM61.7929 2.79289C62.1834 2.40237 62.8166 2.40237 63.2071 2.79289L69.2071 8.79289C69.5976 9.18342 69.5976 9.81658 69.2071 10.2071C68.8166 10.5976 68.1834 10.5976 67.7929 10.2071L61.7929 4.20711C61.4024 3.81658 61.4024 3.18342 61.7929 2.79289Z" fill="black"/>
<path fill-rule="evenodd" clip-rule="evenodd" d="M2.79289 61.7929C3.18342 61.4024 3.81658 61.4024 4.20711 61.7929L10.2071 67.7929C10.5976 68.1834 10.5976 68.8166 10.2071 69.2071C9.81658 69.5976 9.18342 69.5976 8.79289 69.2071L2.79289 63.2071C2.40237 62.8166 2.40237 62.1834 2.79289 61.7929ZM2.29289 66.2929C2.68342 65.9024 3.31658 65.9024 3.70711 66.2929L5.70711 68.2929C6.09763 68.6834 6.09763 69.3166 5.70711 69.7071C5.31658 70.0976 4.68342 70.0976 4.29289 69.7071L2.29289 67.7071C1.90237 67.3166 1.90237 66.6834 2.29289 66.2929Z" fill="black"/>
<path fill-rule="evenodd" clip-rule="evenodd" d="M69.2071 61.7929C69.5976 62.1834 69.5976 62.8166 69.2071 63.2071L63.2071 69.2071C62.8166 69.5976 62.1834 69.5976 61.7929 69.2071C61.4024 68.8166 61.4024 68.1834 61.7929 67.7929L67.7929 61.7929C68.1834 61.4024 68.8166 61.4024 69.2071 61.7929ZM69.7071 66.2929C70.0976 66.6834 70.0976 67.3166 69.7071 67.7071L67.7071 69.7071C67.3166 70.0976 66.6834 70.0976 66.2929 69.7071C65.9024 69.3166 65.9024 68.6834 66.2929 68.2929L68.2929 66.2929C68.6834 65.9024 69.3166 65.9024 69.7071 66.2929Z" fill="black"/>
<path d="M42 44V34M36 44V28M30 44V38" stroke="black" stroke-width="2" stroke-linecap="round" stroke-linejoin="round"/>
</svg>
